<?xml version="1.0" encoding="utf-8"?>
<!-- Generator: Adobe Illustrator 22.0.1, SVG Export Plug-In . SVG Version: 6.00 Build 0)  -->
<svg version="1.1" id="Layer_1" xmlns="http://www.w3.org/2000/svg" xmlns:xlink="http://www.w3.org/1999/xlink" x="0px" y="0px"
	 viewBox="0 0 283.5 283.5" style="enable-background:new 0 0 283.5 283.5;" xml:space="preserve">
<style type="text/css">
	.st0{fill:#F47C6C;}
	.st1{fill:#FFFFFF;}
</style>
<path class="st0" d="M141.7,0C63.5,0,0,63.5,0,141.7C0,220,63.5,283.5,141.7,283.5c78.3,0,141.7-63.5,141.7-141.7
	C283.5,63.5,220,0,141.7,0z"/>
<path class="st1" d="M201.7,198.8c0,2.8-1,5.2-2.9,7.1c-1.9,2-4.3,2.9-7.1,2.9h-100c-2.8,0-5.1-1-7.1-2.9c-1.9-1.9-2.9-4.3-2.9-7.1
	v-60c0-2.8,1-5.1,2.9-7.1c1.9-1.9,4.3-2.9,7.1-2.9h3.3v-20c0-12.8,4.6-23.8,13.8-32.9c9.2-9.2,20.1-13.8,32.9-13.8
	s23.7,4.6,32.9,13.8c9.2,9.2,13.8,20.1,13.8,32.9v20h3.3c2.8,0,5.2,1,7.1,2.9c2,2,2.9,4.3,2.9,7.1L201.7,198.8L201.7,198.8z"/>
<path class="st0" d="M141.7,82.1c-7.4,0-13.6,2.6-18.9,7.8c-5.2,5.2-7.8,11.5-7.8,18.9v20h53.3v-20c0-7.4-2.6-13.6-7.8-18.9
	C155.4,84.8,149.1,82.1,141.7,82.1z"/>
</svg>
