<?xml version="1.0" encoding="utf-8"?>
<!-- Generator: Adobe Illustrator 22.1.0, SVG Export Plug-In . SVG Version: 6.00 Build 0)  -->
<svg version="1.1" id="Layer_1" xmlns="http://www.w3.org/2000/svg" xmlns:xlink="http://www.w3.org/1999/xlink" x="0px" y="0px"
	 viewBox="0 0 283.4 283.5" style="enable-background:new 0 0 283.4 283.5;" xml:space="preserve">
<style type="text/css">
	.st0{fill:#96C93F;}
	.st1{fill:#FFFFFF;}
</style>
<path class="st0" d="M264.5,70.6c12.7,21.7,19,45.4,19,71.2s-6.3,49.4-19,71.1c-12.7,21.7-29.9,38.9-51.6,51.6s-45.4,19-71.1,19
	s-49.4-6.3-71.1-19c-21.7-12.7-38.9-29.9-51.6-51.6C6.3,191.2,0,167.5,0,141.7C0,116,6.3,92.3,19,70.6S48.9,31.7,70.6,19
	S116,0,141.7,0s49.4,6.3,71.1,19C234.6,31.7,251.8,48.9,264.5,70.6z"/>
<rect x="48.2" y="66.2" class="st0" width="1" height="2"/>
<path class="st1" d="M141.7,60.6c-12.6,0-22.8,10.2-22.8,22.8s10.2,22.8,22.8,22.8s22.8-10.2,22.8-22.8
	C164.6,70.8,154.3,60.6,141.7,60.6z M117.6,195.1h6.3v-45.8h-6.3c-3.5,0-6.3-2.8-6.3-6.3v-15.1c0-3.5,2.8-6.3,6.3-6.3h35.5
	c3.5,0,6.3,2.8,6.3,6.3v67.3h6.3c3.5,0,6.3,2.8,6.3,6.3v15.1c0,3.5-2.8,6.3-6.3,6.3h-48.2c-3.5,0-6.3-2.8-6.3-6.3v-15.1
	C111.3,197.9,114.1,195.1,117.6,195.1z"/>
</svg>
