<?xml version="1.0" encoding="utf-8"?>
<!-- Generator: Adobe Illustrator 22.0.1, SVG Export Plug-In . SVG Version: 6.00 Build 0)  -->
<svg version="1.1" id="Layer_1" xmlns="http://www.w3.org/2000/svg" xmlns:xlink="http://www.w3.org/1999/xlink" x="0px" y="0px"
	 viewBox="0 0 283.4 283.5" style="enable-background:new 0 0 283.4 283.5;" xml:space="preserve">
<style type="text/css">
	.st0{fill:#96C93F;}
	.st1{fill:#FFFFFF;}
</style>
<path class="st0" d="M264.5,70.3c12.7,21.7,19,45.4,19,71.2s-6.3,49.4-19,71.1c-12.7,21.7-29.9,38.9-51.6,51.6
	c-21.7,12.7-45.4,19-71.1,19c-25.7,0-49.4-6.3-71.1-19c-21.7-12.7-38.9-29.9-51.6-51.6C6.3,190.9,0,167.2,0,141.5
	C0,115.7,6.3,92,19,70.3c12.7-21.7,29.9-38.9,51.6-51.6c21.7-12.7,45.4-19,71.1-19c25.7,0,49.4,6.3,71.1,19
	C234.6,31.4,251.8,48.6,264.5,70.3z"/>
<path class="st0" d="M233.6,120.1c2.2-2.2,3.3-5,3.3-8.3c0-3.4-1.1-6.3-3.3-8.5l-16.8-16.6c-2.3-2.3-5.1-3.5-8.3-3.5
	c-3.2,0-6,1.2-8.3,3.5l-75.3,75.1l-41.7-41.7c-2.3-2.3-5.1-3.5-8.3-3.5c-3.2,0-6,1.2-8.3,3.5l-16.8,16.6c-2.2,2.2-3.3,5-3.3,8.5
	c0,3.3,1.1,6.1,3.3,8.3l66.8,66.8c2.3,2.3,5.1,3.5,8.3,3.5c3.3,0,6.1-1.2,8.5-3.5L233.6,120.1L233.6,120.1z"/>
<g>
</g>
<rect x="48.2" y="66.2" class="st0" width="1" height="2"/>
<path class="st1" d="M191.7,141.5c2.8,0,5.1,1,7.1,2.9c1.9,1.9,2.9,4.3,2.9,7.1v60c0,2.8-1,5.1-2.9,7.1c-1.9,1.9-4.3,2.9-7.1,2.9
	h-100c-2.8,0-5.1-1-7.1-2.9c-1.9-1.9-2.9-4.3-2.9-7.1v-60c0-2.8,1-5.1,2.9-7.1c1.9-1.9,4.3-2.9,7.1-2.9h3.3v-33.3
	c0-12.8,4.6-23.8,13.7-33c9.1-9.1,20.1-13.7,33-13.7c12.8,0,23.8,4.6,33,13.7c9.1,9.1,13.7,20.1,13.7,33c0,1.8-0.7,3.4-2,4.7
	c-1.3,1.3-2.9,2-4.7,2h-6.7c-1.8,0-3.4-0.7-4.7-2c-1.3-1.3-2-2.9-2-4.7c0-7.4-2.6-13.6-7.8-18.9c-5.2-5.2-11.5-7.8-18.9-7.8
	c-7.4,0-13.6,2.6-18.9,7.8c-5.2,5.2-7.8,11.5-7.8,18.9v33.3H191.7z"/>
</svg>
